<?xml version="1.0" standalone="no"?>
<!DOCTYPE svg PUBLIC "-//W3C//DTD SVG 20010904//EN"
 "http://www.w3.org/TR/2001/REC-SVG-20010904/DTD/svg10.dtd">
<svg version="1.0" xmlns="http://www.w3.org/2000/svg"
 width="200.000000pt" height="252.000000pt" viewBox="0 0 200.000000 252.000000"
 preserveAspectRatio="xMidYMid meet">

<g transform="translate(0.000000,252.000000) scale(0.100000,-0.100000)"
fill="#000000" stroke="none">
<path d="M403 2404 c-9 -23 24 -183 51 -250 13 -32 50 -91 83 -133 62 -79 123
-169 123 -183 0 -4 -11 -8 -23 -8 -13 0 -32 -9 -42 -20 -15 -17 -16 -24 -7
-45 9 -20 19 -25 47 -25 31 0 35 -3 35 -25 0 -18 -34 -58 -127 -152 -71 -71
-158 -171 -195 -223 -121 -170 -236 -432 -283 -644 -21 -94 -16 -245 10 -319
24 -68 106 -154 180 -188 129 -61 155 -64 755 -64 487 0 552 2 613 17 221 57
315 167 325 380 5 113 -10 194 -70 366 -86 251 -229 468 -480 727 l-58 60 44
-3 c37 -3 48 1 80 28 31 27 41 31 70 26 95 -18 226 -96 226 -135 0 -25 20 -41
50 -41 30 0 50 17 50 42 0 28 -34 89 -67 120 -24 23 -119 73 -177 92 -18 6
-18 8 6 34 82 86 89 162 16 162 -22 0 -32 -8 -47 -37 -11 -21 -38 -56 -60 -77
l-41 -40 -25 24 c-27 25 -82 32 -119 15 -38 -17 -6 14 97 93 121 94 179 156
195 210 19 62 15 89 -13 108 -24 15 -30 15 -83 0 -97 -27 -118 -23 -221 44
-133 85 -203 91 -354 31 -89 -36 -138 -38 -292 -16 -55 8 -117 15 -137 15 -29
0 -41 6 -54 25 -19 29 -71 35 -81 9z m878 -144 c108 -70 119 -74 199 -68 33 2
60 1 60 -2 0 -11 -95 -96 -208 -188 -57 -46 -108 -94 -114 -107 l-10 -23 -152
5 c-94 4 -179 1 -226 -6 -67 -11 -76 -10 -85 5 -37 62 -92 138 -139 191 -43
49 -60 78 -77 133 -12 39 -19 73 -16 76 3 3 56 0 119 -8 62 -7 154 -13 203
-12 77 0 101 4 165 31 51 21 93 31 131 32 52 1 62 -3 150 -59z m-105 -488 c6
-4 14 -24 18 -45 6 -32 32 -64 142 -180 248 -260 377 -454 459 -688 62 -179
82 -353 51 -442 -36 -98 -142 -168 -286 -187 -101 -13 -994 -13 -1098 0 -46 6
-109 20 -140 32 -74 27 -146 95 -166 155 -45 133 7 388 134 648 78 161 161
275 317 436 144 149 146 151 155 239 3 21 10 26 43 31 58 9 358 10 371 1z"/>
<path d="M930 1371 c0 -48 0 -49 -37 -56 -161 -29 -243 -168 -177 -297 21 -40
84 -83 154 -104 l60 -18 0 -138 0 -138 -30 0 c-37 0 -97 29 -143 69 l-33 30
-28 -35 -28 -36 23 -24 c33 -35 133 -83 190 -90 l49 -7 0 -53 0 -54 45 0 45 0
0 53 0 52 62 18 c136 40 203 173 149 294 -23 50 -84 97 -157 120 l-54 17 0
128 c0 70 4 128 9 128 18 0 87 -33 117 -55 l31 -24 28 29 c24 25 26 32 15 45
-21 26 -100 68 -149 81 l-46 11 -3 52 -3 51 -45 0 -44 0 0 -49z m0 -251 c0
-76 -4 -120 -10 -120 -22 0 -110 51 -120 69 -28 53 8 128 75 157 55 24 55 24
55 -106z m133 -264 c107 -44 116 -170 17 -221 -58 -30 -60 -27 -60 110 0 69 2
125 5 125 3 0 20 -6 38 -14z"/>
</g>
</svg>
