<?xml version="1.0" standalone="no"?>
<!DOCTYPE svg PUBLIC "-//W3C//DTD SVG 20010904//EN"
 "http://www.w3.org/TR/2001/REC-SVG-20010904/DTD/svg10.dtd">
<svg version="1.0" xmlns="http://www.w3.org/2000/svg"
 width="838.000000pt" height="877.000000pt" viewBox="0 0 838.000000 877.000000"
 preserveAspectRatio="xMidYMid meet">

<g transform="translate(0.000000,877.000000) scale(0.100000,-0.100000)"
fill="#000000" stroke="none">
<path d="M205 8358 c-3 -7 -4 -1799 -3 -3983 l3 -3970 3985 0 3985 0 0 165 0
165 -3815 5 -3815 5 -5 3810 -5 3810 -163 3 c-124 2 -164 0 -167 -10z"/>
<path d="M5080 7631 c0 -5 151 -154 335 -331 184 -177 335 -328 335 -334 0 -7
-132 -152 -292 -323 -161 -170 -428 -452 -592 -626 -164 -174 -305 -317 -313
-317 -12 0 -366 329 -891 829 -163 155 -196 182 -212 175 -11 -5 -149 -146
-307 -315 -424 -449 -747 -792 -1018 -1079 -198 -209 -1018 -1079 -1128 -1197
-21 -23 -27 -35 -20 -47 5 -9 121 -123 258 -253 538 -510 694 -653 708 -647
13 5 202 203 873 914 142 151 362 384 488 518 125 133 233 242 240 242 6 0 34
-22 62 -49 27 -28 66 -63 86 -79 20 -15 148 -134 285 -263 536 -507 656 -620
663 -617 9 3 430 448 1315 1388 611 649 768 811 786 808 10 -2 169 -148 353
-325 184 -178 340 -323 346 -323 13 0 13 4 -5 119 -16 112 -64 456 -100 724
-14 104 -43 318 -65 475 -22 158 -51 370 -65 472 -14 102 -29 208 -33 235 l-7
50 -70 7 c-80 8 -1211 113 -1385 128 -63 5 -209 19 -325 30 -233 22 -305 25
-305 11z"/>
<path d="M6453 4852 l-272 -287 -1 -1546 c0 -1402 1 -1547 16 -1553 20 -8 768
-8 788 0 15 6 16 167 16 1728 l-1 1721 -121 113 c-67 61 -129 112 -137 112 -9
-1 -138 -130 -288 -288z"/>
<path d="M5649 3998 c-91 -95 -271 -286 -402 -425 l-237 -251 0 -925 c0 -834
2 -925 16 -931 9 -3 188 -6 398 -6 290 0 386 3 399 13 16 11 17 101 15 1351
-2 960 -6 1340 -14 1343 -6 2 -85 -74 -175 -169z"/>
<path d="M3427 3838 c-25 -24 -129 -133 -233 -243 -104 -110 -265 -280 -357
-377 l-167 -177 0 -780 c0 -761 0 -781 19 -791 23 -12 779 -14 799 -2 18 12
13 2403 -5 2409 -7 3 -32 -15 -56 -39z"/>
<path d="M3840 2567 l0 -1095 23 -6 c29 -8 755 -8 785 0 l22 6 0 734 0 734
-21 0 c-14 0 -81 57 -188 158 -421 398 -594 557 -607 560 -12 3 -14 -150 -14
-1091z"/>
<path d="M1510 2061 c0 -528 2 -589 16 -595 20 -8 758 -8 778 0 14 6 16 67 16
590 0 493 -2 584 -14 584 -8 0 -92 -83 -187 -185 -95 -102 -177 -185 -182
-185 -5 0 -93 81 -196 179 -104 98 -198 184 -210 190 l-21 12 0 -590z"/>
</g>
</svg>
